<svg xmlns="http://www.w3.org/2000/svg" viewBox="0 0 900 520" width="100%" height="auto">
  <defs>
    <linearGradient id="highConf" x1="0" y1="0" x2="0" y2="1">
      <stop offset="0%" stop-color="#00d4aa"/>
      <stop offset="100%" stop-color="#00a080"/>
    </linearGradient>
    <linearGradient id="midConf" x1="0" y1="0" x2="0" y2="1">
      <stop offset="0%" stop-color="#ff9f43"/>
      <stop offset="100%" stop-color="#cc7a30"/>
    </linearGradient>
    <linearGradient id="lowConf" x1="0" y1="0" x2="0" y2="1">
      <stop offset="0%" stop-color="#ff6b6b"/>
      <stop offset="100%" stop-color="#c44040"/>
    </linearGradient>
    <linearGradient id="modelBox" x1="0" y1="0" x2="0" y2="1">
      <stop offset="0%" stop-color="#3a86ff"/>
      <stop offset="100%" stop-color="#2a66cc"/>
    </linearGradient>
    <linearGradient id="calibBox" x1="0" y1="0" x2="0" y2="1">
      <stop offset="0%" stop-color="#9b59b6"/>
      <stop offset="100%" stop-color="#7d3f96"/>
    </linearGradient>
  </defs>

  <!-- Title -->
  <text x="450" y="38" text-anchor="middle" fill="#ccc" font-family="Helvetica, Arial" font-size="24" font-weight="bold">Ensemble Std + Region → Confidence</text>
  <text x="450" y="64" text-anchor="middle" fill="#999" font-family="Helvetica, Arial" font-size="16">via the residual-aware calibrator</text>

  <!-- ============ PANEL 1: Models agree, sparse region ============ -->
  <text x="155" y="100" text-anchor="middle" fill="#00d4aa" font-family="Helvetica, Arial" font-size="18" font-weight="bold">Models Agree</text>
  <text x="155" y="120" text-anchor="middle" fill="#aaa" font-family="Helvetica, Arial" font-size="14">in a typical region</text>

  <rect x="35" y="135" width="80" height="32" rx="6" fill="url(#modelBox)" opacity="0.9"/>
  <text x="75" y="156" text-anchor="middle" fill="white" font-family="Helvetica, Arial" font-size="16">2.41</text>
  <rect x="120" y="135" width="80" height="32" rx="6" fill="url(#modelBox)" opacity="0.9"/>
  <text x="160" y="156" text-anchor="middle" fill="white" font-family="Helvetica, Arial" font-size="16">2.38</text>
  <rect x="205" y="135" width="80" height="32" rx="6" fill="url(#modelBox)" opacity="0.9"/>
  <text x="245" y="156" text-anchor="middle" fill="white" font-family="Helvetica, Arial" font-size="16">2.43</text>
  <rect x="80" y="175" width="80" height="32" rx="6" fill="url(#modelBox)" opacity="0.9"/>
  <text x="120" y="196" text-anchor="middle" fill="white" font-family="Helvetica, Arial" font-size="16">2.39</text>
  <rect x="165" y="175" width="80" height="32" rx="6" fill="url(#modelBox)" opacity="0.9"/>
  <text x="205" y="196" text-anchor="middle" fill="white" font-family="Helvetica, Arial" font-size="16">2.40</text>

  <line x1="155" y1="215" x2="155" y2="240" stroke="#999" stroke-width="2"/>
  <polygon points="155,248 149,236 161,236" fill="#999"/>
  <text x="155" y="270" text-anchor="middle" fill="#aaa" font-family="Helvetica, Arial" font-size="16">pred=2.40, std=0.02</text>

  <rect x="40" y="285" width="230" height="60" rx="10" fill="url(#calibBox)" opacity="0.25" stroke="#9b59b6" stroke-width="1.5"/>
  <text x="155" y="307" text-anchor="middle" fill="#c89bd9" font-family="Helvetica, Arial" font-size="15" font-weight="bold">Residual Calibrator</text>
  <text x="155" y="328" text-anchor="middle" fill="#aaa" font-family="Helvetica, Arial" font-size="13">historical |resid| ≈ 0.05</text>

  <line x1="155" y1="355" x2="155" y2="385" stroke="#00d4aa" stroke-width="3"/>
  <polygon points="155,392 148,378 162,378" fill="#00d4aa"/>

  <rect x="40" y="400" width="230" height="80" rx="10" fill="url(#highConf)" opacity="0.2" stroke="#00d4aa" stroke-width="2"/>
  <text x="155" y="430" text-anchor="middle" fill="#ccc" font-family="Helvetica, Arial" font-size="15">confidence = 0.92</text>
  <text x="155" y="462" text-anchor="middle" fill="#00d4aa" font-family="Helvetica, Arial" font-size="22" font-weight="bold">HIGH</text>

  <!-- ============ PANEL 2: Models agree, dense region (NEW CASE) ============ -->
  <text x="450" y="100" text-anchor="middle" fill="#ff9f43" font-family="Helvetica, Arial" font-size="18" font-weight="bold">Models Agree</text>
  <text x="450" y="120" text-anchor="middle" fill="#aaa" font-family="Helvetica, Arial" font-size="14">in a dense/censored region</text>

  <rect x="330" y="135" width="80" height="32" rx="6" fill="url(#modelBox)" opacity="0.9"/>
  <text x="370" y="156" text-anchor="middle" fill="white" font-family="Helvetica, Arial" font-size="16">-3.56</text>
  <rect x="415" y="135" width="80" height="32" rx="6" fill="url(#modelBox)" opacity="0.9"/>
  <text x="455" y="156" text-anchor="middle" fill="white" font-family="Helvetica, Arial" font-size="16">-3.55</text>
  <rect x="500" y="135" width="80" height="32" rx="6" fill="url(#modelBox)" opacity="0.9"/>
  <text x="540" y="156" text-anchor="middle" fill="white" font-family="Helvetica, Arial" font-size="16">-3.58</text>
  <rect x="375" y="175" width="80" height="32" rx="6" fill="url(#modelBox)" opacity="0.9"/>
  <text x="415" y="196" text-anchor="middle" fill="white" font-family="Helvetica, Arial" font-size="16">-3.57</text>
  <rect x="460" y="175" width="80" height="32" rx="6" fill="url(#modelBox)" opacity="0.9"/>
  <text x="500" y="196" text-anchor="middle" fill="white" font-family="Helvetica, Arial" font-size="16">-3.56</text>

  <line x1="450" y1="215" x2="450" y2="240" stroke="#999" stroke-width="2"/>
  <polygon points="450,248 444,236 456,236" fill="#999"/>
  <text x="450" y="270" text-anchor="middle" fill="#aaa" font-family="Helvetica, Arial" font-size="16">pred=-3.56, std=0.02</text>

  <rect x="335" y="285" width="230" height="60" rx="10" fill="url(#calibBox)" opacity="0.25" stroke="#9b59b6" stroke-width="1.5"/>
  <text x="450" y="307" text-anchor="middle" fill="#c89bd9" font-family="Helvetica, Arial" font-size="15" font-weight="bold">Residual Calibrator</text>
  <text x="450" y="328" text-anchor="middle" fill="#aaa" font-family="Helvetica, Arial" font-size="13">historical |resid| ≈ 0.50</text>

  <line x1="450" y1="355" x2="450" y2="385" stroke="#ff9f43" stroke-width="3"/>
  <polygon points="450,392 443,378 457,378" fill="#ff9f43"/>

  <rect x="335" y="400" width="230" height="80" rx="10" fill="url(#midConf)" opacity="0.2" stroke="#ff9f43" stroke-width="2"/>
  <text x="450" y="430" text-anchor="middle" fill="#ccc" font-family="Helvetica, Arial" font-size="15">confidence = 0.55</text>
  <text x="450" y="462" text-anchor="middle" fill="#ff9f43" font-family="Helvetica, Arial" font-size="22" font-weight="bold">MODERATE</text>

  <!-- ============ PANEL 3: Models disagree ============ -->
  <text x="745" y="100" text-anchor="middle" fill="#ff6b6b" font-family="Helvetica, Arial" font-size="18" font-weight="bold">Models Disagree</text>
  <text x="745" y="120" text-anchor="middle" fill="#aaa" font-family="Helvetica, Arial" font-size="14">wide ensemble spread</text>

  <rect x="625" y="135" width="80" height="32" rx="6" fill="url(#modelBox)" opacity="0.9"/>
  <text x="665" y="156" text-anchor="middle" fill="white" font-family="Helvetica, Arial" font-size="16">1.82</text>
  <rect x="710" y="135" width="80" height="32" rx="6" fill="url(#modelBox)" opacity="0.9"/>
  <text x="750" y="156" text-anchor="middle" fill="white" font-family="Helvetica, Arial" font-size="16">2.95</text>
  <rect x="795" y="135" width="80" height="32" rx="6" fill="url(#modelBox)" opacity="0.9"/>
  <text x="835" y="156" text-anchor="middle" fill="white" font-family="Helvetica, Arial" font-size="16">2.31</text>
  <rect x="670" y="175" width="80" height="32" rx="6" fill="url(#modelBox)" opacity="0.9"/>
  <text x="710" y="196" text-anchor="middle" fill="white" font-family="Helvetica, Arial" font-size="16">3.47</text>
  <rect x="755" y="175" width="80" height="32" rx="6" fill="url(#modelBox)" opacity="0.9"/>
  <text x="795" y="196" text-anchor="middle" fill="white" font-family="Helvetica, Arial" font-size="16">1.58</text>

  <line x1="745" y1="215" x2="745" y2="240" stroke="#999" stroke-width="2"/>
  <polygon points="745,248 739,236 751,236" fill="#999"/>
  <text x="745" y="270" text-anchor="middle" fill="#aaa" font-family="Helvetica, Arial" font-size="16">pred=2.43, std=0.71</text>

  <rect x="630" y="285" width="230" height="60" rx="10" fill="url(#calibBox)" opacity="0.25" stroke="#9b59b6" stroke-width="1.5"/>
  <text x="745" y="307" text-anchor="middle" fill="#c89bd9" font-family="Helvetica, Arial" font-size="15" font-weight="bold">Residual Calibrator</text>
  <text x="745" y="328" text-anchor="middle" fill="#aaa" font-family="Helvetica, Arial" font-size="13">historical |resid| ≈ 0.85</text>

  <line x1="745" y1="355" x2="745" y2="385" stroke="#ff6b6b" stroke-width="3"/>
  <polygon points="745,392 738,378 752,378" fill="#ff6b6b"/>

  <rect x="630" y="400" width="230" height="80" rx="10" fill="url(#lowConf)" opacity="0.2" stroke="#ff6b6b" stroke-width="2"/>
  <text x="745" y="430" text-anchor="middle" fill="#ccc" font-family="Helvetica, Arial" font-size="15">confidence = 0.15</text>
  <text x="745" y="462" text-anchor="middle" fill="#ff6b6b" font-family="Helvetica, Arial" font-size="22" font-weight="bold">LOW</text>
</svg>
